# xmcd
#
# Track frame offsets:
#	150
#	13890
#	26942
#	40072
#	52275
#	66502
#	79452
#	92150
#	103630
#	113362
#	127040
#	139342
#	151325
#	165032
#	176722
#	191755
#	203597
#	214725
#	227435
#	239655
#	250175
#
# Disc length: 3510
#
# Revision: 3
# Processed by: cddbd v1.5.1PL0 Copyright (c) Steve Scherf et al.
# Submitted via: CDex 1.51
# Normalized: r2:TDELIM( - )
#
DISCID=2c0db415
DTITLE=Various Artist - Best Of Soul - Original Artists
DYEAR=1997
DGENRE=Soul
TTITLE0=The Impressions - It's All Right
TTITLE1=Robert Knight - Everlasting Love
TTITLE2=Carla Thomas - B-A-B-Y
TTITLE3=Jerry Butler - Only The Strong Survive
TTITLE4=Jimmy Ruffin - What Becomes Of The Broken Hearted
TTITLE5=Fontella Bass - Rescue Me
TTITLE6=Tyrone Davis - Can I Change My Mind
TTITLE7=Barbara Lewis - Make Me Your Baby
TTITLE8=Solomon Burke - Got To Get You Off My Mind
TTITLE9=Percy Sledge - When A Man Loves A Woman
TTITLE10=Clarence Carter - Slip Away
TTITLE11=Sam and Dave - Soul Man
TTITLE12=Ben E. King - Stand by Me
TTITLE13=Etta James - Tell Mama
TTITLE14=Al Wilson - Show And Tell
TTITLE15=Mary Wells - My Guy
TTITLE16=The Capitols - Cool Jerk
TTITLE17=Eddie Floyd - Knock On Wood
TTITLE18=Bob and Earl - Harlem Shuffle
TTITLE19=Jean Knight - Mr. Big Stuff
TTITLE20=Martha Reeves - Jimmy Mack
EXTD=YEAR: 1997
EXTT0=
EXTT1=
EXTT2=
EXTT3=
EXTT4=
EXTT5=
EXTT6=
EXTT7=
EXTT8=
EXTT9=
EXTT10=
EXTT11=
EXTT12=
EXTT13=
EXTT14=
EXTT15=
EXTT16=
EXTT17=
EXTT18=
EXTT19=
EXTT20=
PLAYORDER=
